/* XPM */
static char * south_wall_xpm[] = {
"87 60 3 1",
". c #707070", /* Aged gray */
"# c #505050", /* Darker spots */
"  c #909090", /* Lighter parts */
"#######################################################################################",
"##...............##...............##...............##...............##...............##",
"#.................#.................#.................#.................#.............#",
"#.................#.................#.................#.................#.............#",
"##...............##...............##...............##...............##...............##",
"#######################################################################################",
"#######################################################################################",
"##...............##...............##...............##...............##...............##",
"#.................#.................#.................#.................#.............#",
"#.................#.................#.................#.................#.............#",
"##...............##...............##...............##...............##...............##",
"#######################################################################################",
"#######################################################################################",
"##...............##...............##...............##...............##...............##",
"#.................#.................#.................#.................#.............#",
"#.................#.................#.................#.................#.............#",
"##...............##...............##...............##...............##...............##",
"#######################################################################################",
"#######################################################################################",
"##...............##...............##...............##...............##...............##",
"#.................#.................#.................#.................#.............#",
"#.................#.................#.................#.................#.............#",
"##...............##...............##...............##...............##...............##",
"#######################################################################################",
"#######################################################################################",
"##...............##...............##...............##...............##...............##",
"#.................#.................#.................#.................#.............#",
"#.................#.................#.................#.................#.............#",
"##...............##...............##...............##...............##...............##",
"#######################################################################################",
"#######################################################################################",
"##...............##...............##...............##...............##...............##",
"#.................#.................#.................#.................#.............#",
"#.................#.................#.................#.................#.............#",
"##...............##...............##...............##...............##...............##",
"#######################################################################################",
"#######################################################################################",
"##...............##...............##...............##...............##...............##",
"#.................#.................#.................#.................#.............#",
"#.................#.................#.................#.................#.............#",
"##...............##...............##...............##...............##...............##",
"#######################################################################################",
"#######################################################################################",
"##...............##...............##...............##...............##...............##",
"#.................#.................#.................#.................#.............#",
"#.................#.................#.................#.................#.............#",
"##...............##...............##...............##...............##...............##",
"#######################################################################################",
"#######################################################################################",
"##...............##...............##...............##...............##...............##",
"#.................#.................#.................#.................#.............#",
"#.................#.................#.................#.................#.............#",
"##...............##...............##...............##...............##...............##",
"#######################################################################################",
"#######################################################################################",
"##...............##...............##...............##...............##...............##",
"#.................#.................#.................#.................#.............#",
"#.................#.................#.................#.................#.............#",
"##...............##...............##...............##...............##...............##",
"#######################################################################################"
};